<svg id="Layer_1" enable-background="new 0 0 511.985 511.985" height="512" viewBox="0 0 511.985 511.985" width="512" xmlns="http://www.w3.org/2000/svg"><g><path d="m437.006 74.979c-48.35-48.351-112.636-74.979-181.014-74.979s-132.663 26.628-181.013 74.979-74.979 112.635-74.979 181.014c0 68.378 26.628 132.663 74.979 181.014s112.636 74.979 181.014 74.979 132.663-26.628 181.014-74.979 74.979-112.636 74.979-181.014c-.001-68.379-26.629-132.664-74.98-181.014zm-21.213 340.814c-42.685 42.684-99.436 66.191-159.801 66.191s-117.116-23.507-159.801-66.191c-42.683-42.684-66.191-99.436-66.191-159.8s23.508-117.117 66.192-159.801c42.684-42.685 99.436-66.192 159.8-66.192s117.116 23.507 159.801 66.192c42.684 42.684 66.191 99.436 66.191 159.801s-23.507 117.116-66.191 159.8z"/><path d="m165.032 252.341c28.474 0 51.64-23.166 51.64-51.64s-23.166-51.64-51.64-51.64-51.64 23.166-51.64 51.64 23.166 51.64 51.64 51.64zm0-73.279c11.932 0 21.64 9.708 21.64 21.64s-9.708 21.64-21.64 21.64-21.64-9.708-21.64-21.64 9.708-21.64 21.64-21.64z"/><path d="m345.361 252.341c28.474 0 51.64-23.166 51.64-51.64s-23.166-51.64-51.64-51.64-51.64 23.166-51.64 51.64 23.165 51.64 51.64 51.64zm0-73.279c11.932 0 21.64 9.708 21.64 21.64s-9.708 21.64-21.64 21.64-21.64-9.708-21.64-21.64 9.707-21.64 21.64-21.64z"/><path d="m407.144 284.641h-302.287c-8.284 0-15 6.716-15 15 0 39.092 17.58 75.708 49.5 103.103 31.266 26.832 72.69 41.609 116.644 41.609s85.378-14.777 116.644-41.609c31.92-27.394 49.5-64.01 49.5-103.103-.001-8.284-6.717-15-15.001-15zm-16.159 30c-1.226 7.876-3.406 15.503-6.435 22.797h-257.099c-3.03-7.293-5.209-14.921-6.435-22.797zm-134.985 99.712c-44.989 0-84.947-18.487-109.749-46.915h219.498c-24.802 28.427-64.759 46.915-109.749 46.915z"/></g></svg>