<svg id="Layer_1" enable-background="new 0 0 512.146 512.146" height="512" viewBox="0 0 512.146 512.146" width="512" xmlns="http://www.w3.org/2000/svg"><g><path d="m437.142 75.057c-48.366-48.349-112.67-74.977-181.069-74.977-68.398 0-132.704 26.627-181.069 74.977-48.367 48.351-75.004 112.637-75.004 181.016s26.637 132.665 75.004 181.016c48.366 48.35 112.67 74.977 181.069 74.977s132.704-26.627 181.069-74.977c48.367-48.351 75.003-112.637 75.003-181.016s-26.636-132.665-75.003-181.016zm-21.21 340.815c-42.7 42.686-99.472 66.193-159.859 66.193s-117.16-23.508-159.859-66.193c-42.699-42.684-66.214-99.435-66.214-159.799s23.515-117.115 66.213-159.799c42.7-42.686 99.472-66.193 159.859-66.193s117.16 23.508 159.859 66.193c42.698 42.684 66.213 99.436 66.213 159.799s-23.514 117.115-66.212 159.799z"/><path d="m165.083 252.421c28.481 0 51.652-23.166 51.652-51.64s-23.171-51.64-51.652-51.64-51.652 23.166-51.652 51.64 23.171 51.64 51.652 51.64zm0-73.279c11.939 0 21.652 9.708 21.652 21.64s-9.713 21.64-21.652 21.64-21.652-9.708-21.652-21.64 9.713-21.64 21.652-21.64z"/><path d="m345.471 252.421c28.481 0 51.652-23.166 51.652-51.64s-23.171-51.64-51.652-51.64-51.652 23.166-51.652 51.64 23.171 51.64 51.652 51.64zm0-73.279c11.939 0 21.652 9.708 21.652 21.64s-9.713 21.64-21.652 21.64-21.652-9.708-21.652-21.64 9.713-21.64 21.652-21.64z"/><path d="m393.581 295.846c-7.675-3.126-16.425.562-19.549 8.234-20.111 49.383-66.334 81.292-117.76 81.292s-97.649-31.909-117.76-81.292c-3.124-7.672-11.875-11.361-19.549-8.234-7.673 3.125-11.359 11.877-8.235 19.549 24.733 60.734 81.862 99.977 145.544 99.977s120.811-39.243 145.544-99.977c3.124-7.672-.563-16.424-8.235-19.549z"/></g></svg>