<svg id="Layer_1" enable-background="new 0 0 511.985 511.985" height="512" viewBox="0 0 511.985 511.985" width="512" xmlns="http://www.w3.org/2000/svg"><g><path d="m437.006 74.979c-48.35-48.351-112.636-74.979-181.014-74.979s-132.663 26.628-181.013 74.979-74.979 112.635-74.979 181.014c0 68.378 26.628 132.663 74.979 181.014s112.636 74.979 181.014 74.979 132.663-26.628 181.014-74.979 74.979-112.636 74.979-181.014-26.629-132.664-74.98-181.014zm-21.213 340.814c-42.685 42.685-99.437 66.192-159.801 66.192-60.365 0-117.116-23.507-159.801-66.191-42.684-42.685-66.191-99.437-66.191-159.801s23.507-117.117 66.192-159.801c42.684-42.685 99.435-66.192 159.8-66.192 60.364 0 117.116 23.507 159.801 66.192 42.684 42.684 66.191 99.436 66.191 159.801s-23.507 117.116-66.191 159.8z"/><path d="m128.393 215.701c8.284 0 15-6.716 15-15 0-11.932 9.707-21.64 21.64-21.64s21.64 9.708 21.64 21.64c0 8.284 6.716 15 15 15s15-6.716 15-15c0-28.474-23.165-51.64-51.64-51.64s-51.64 23.166-51.64 51.64c0 8.284 6.716 15 15 15z"/><path d="m308.721 215.701c8.284 0 15-6.716 15-15 0-11.932 9.707-21.64 21.64-21.64s21.64 9.708 21.64 21.64c0 8.284 6.716 15 15 15s15-6.716 15-15c0-28.474-23.165-51.64-51.64-51.64s-51.64 23.166-51.64 51.64c0 8.284 6.716 15 15 15z"/><path d="m407.144 284.641h-302.287c-8.284 0-15 6.716-15 15 0 39.093 17.579 75.708 49.5 103.103 31.265 26.832 72.689 41.609 116.644 41.609s85.379-14.777 116.644-41.609c31.921-27.394 49.5-64.01 49.5-103.103-.001-8.284-6.717-15-15.001-15zm-16.159 30c-1.921 12.339-6.18 24.066-12.386 34.856h-245.197c-6.206-10.79-10.465-22.517-12.386-34.856zm-232.62 64.856h195.27c-24.757 21.483-59.375 34.856-97.635 34.856s-72.878-13.373-97.635-34.856z"/></g></svg>