<svg id="Layer_1" enable-background="new 0 0 512 512" height="512" viewBox="0 0 512 512" width="512" xmlns="http://www.w3.org/2000/svg"><g><path d="m128.393 215.709c8.284 0 15-6.716 15-15 0-11.932 9.707-21.64 21.64-21.64s21.64 9.708 21.64 21.64c0 8.284 6.716 15 15 15s15-6.716 15-15c0-28.474-23.165-51.64-51.64-51.64s-51.64 23.166-51.64 51.64c0 8.284 6.715 15 15 15z"/><path d="m308.721 215.709c8.284 0 15-6.716 15-15 0-11.932 9.707-21.64 21.64-21.64s21.64 9.708 21.64 21.64c0 8.284 6.716 15 15 15s15-6.716 15-15c0-28.474-23.165-51.64-51.64-51.64s-51.64 23.166-51.64 51.64c0 8.284 6.716 15 15 15z"/><path d="m407.144 284.649h-302.288c-8.284 0-15 6.716-15 15 0 39.093 17.579 75.708 49.5 103.103 31.265 26.832 72.69 41.608 116.644 41.608s85.379-14.777 116.644-41.609c31.921-27.394 49.5-64.01 49.5-103.103 0-8.283-6.716-14.999-15-14.999zm-16.16 30c-1.921 12.339-6.18 24.066-12.386 34.856h-245.196c-6.206-10.79-10.465-22.517-12.386-34.856zm-232.619 64.856h195.27c-24.757 21.483-59.375 34.855-97.635 34.855s-72.878-13.372-97.635-34.855z"/><path d="m512 105.197c0-10.121-2.474-18.994-8.022-28.771l-39.062-68.822c-2.629-4.632-7.518-7.523-12.844-7.594-5.291-.091-10.29 2.687-13.043 7.247l-27.486 45.536c-45.012-34.154-99.601-52.785-155.551-52.785-68.378 0-132.663 26.628-181.014 74.979s-74.978 112.635-74.978 181.014c0 68.378 26.628 132.663 74.979 181.014s112.636 74.979 181.014 74.979 132.663-26.628 181.014-74.979 74.979-112.636 74.979-181.014c0-35.266-7.574-70.85-21.955-103.711 13.42-11.302 21.969-28.214 21.969-47.093zm-60.527-60.503 26.414 46.539c2.999 5.284 4.113 9.068 4.113 13.963 0 17.403-14.158 31.562-31.562 31.562s-31.562-14.159-31.562-31.562c0-4.92 1.104-8.328 4.54-14.022l4.541-7.523c.27-.404.52-.816.747-1.237zm30.511 211.307c0 60.365-23.508 117.116-66.191 159.8-42.685 42.685-99.437 66.192-159.801 66.192-60.365 0-117.116-23.507-159.801-66.191-42.684-42.685-66.191-99.437-66.191-159.801s23.507-117.117 66.191-159.801c42.685-42.685 99.436-66.192 159.801-66.192 50.453 0 99.692 17.211 139.989 48.679-3.873 6.959-7.104 15.14-7.104 26.51 0 33.945 27.616 61.562 61.562 61.562 4.324 0 8.543-.453 12.617-1.305 12.409 28.762 18.928 59.809 18.928 90.547z"/></g></svg>