<svg id="Layer_1" enable-background="new 0 0 512 512" height="512" viewBox="0 0 512 512" width="512" xmlns="http://www.w3.org/2000/svg"><g><path d="m511.943 256c0-68.379-26.623-132.666-74.964-181.018s-112.614-74.982-180.979-74.982c-68.366 0-132.639 26.629-180.98 74.982-48.341 48.351-74.963 112.638-74.963 181.018s26.622 132.666 74.963 181.018c48.341 48.353 112.615 74.982 180.98 74.982 41.405 0 82.285-10.114 118.955-29.33 12.468 11.213 28.419 17.353 45.314 17.353 18.126 0 35.167-7.06 47.985-19.876 24.45-24.45 26.287-63.059 5.55-89.661 24.982-40.399 38.139-86.638 38.139-134.486zm-415.711 159.811c-42.677-42.686-66.181-99.442-66.181-159.811s23.503-117.125 66.18-159.811c42.676-42.686 99.417-66.195 159.769-66.195s117.093 23.508 159.768 66.194c42.678 42.687 66.18 99.442 66.18 159.811 0 39.665-10.237 78.074-29.737 112.133l-28.916-28.916c8.127-18.676 12.6-39.024 12.6-60.307 0-8.282-6.715-14.997-14.997-14.997s-14.997 6.715-14.997 14.997c0 73.899-67.241 134.019-149.892 134.019s-149.891-60.12-149.891-134.019c0-8.282-6.715-14.997-14.997-14.997s-14.997 6.715-14.997 14.997c0 90.438 80.697 164.014 179.886 164.014 23.738 0 46.412-4.223 67.18-11.875l29.304 29.304c-30.131 14.207-63.121 21.653-96.492 21.653-60.354.001-117.095-23.508-159.77-66.194zm291.205 37.068-35.363-35.363c22.553-13.041 41.719-30.525 56.008-51.096l38.964 38.964c14.763 14.765 14.763 38.789 0 53.552-7.153 7.153-16.662 11.092-26.776 11.092-10.115 0-19.624-3.939-26.776-11.091z"/><path d="m128.424 215.704c8.282 0 14.997-6.715 14.997-14.997 0-11.935 9.706-21.644 21.636-21.644s21.636 9.709 21.636 21.644c0 8.282 6.715 14.997 14.997 14.997s14.997-6.715 14.997-14.997c0-28.474-23.162-51.638-51.63-51.638s-51.63 23.165-51.63 51.638c0 8.282 6.715 14.997 14.997 14.997z"/><path d="m308.718 215.704c8.282 0 14.997-6.715 14.997-14.997 0-11.935 9.705-21.644 21.636-21.644s21.636 9.709 21.636 21.644c0 8.282 6.715 14.997 14.997 14.997s14.997-6.715 14.997-14.997c0-28.474-23.161-51.638-51.63-51.638-28.47 0-51.63 23.165-51.63 51.638 0 8.282 6.714 14.997 14.997 14.997z"/></g></svg>