<svg id="Layer_1" enable-background="new 0 0 511.985 511.985" height="512" viewBox="0 0 511.985 511.985" width="512" xmlns="http://www.w3.org/2000/svg"><g><path d="m437.006 74.979c-48.35-48.351-112.636-74.979-181.014-74.979s-132.663 26.628-181.013 74.979-74.979 112.635-74.979 181.014c0 68.378 26.628 132.663 74.979 181.014s112.636 74.979 181.014 74.979 132.663-26.628 181.014-74.979 74.979-112.636 74.979-181.014c-.001-68.379-26.629-132.664-74.98-181.014zm-21.213 340.814c-42.685 42.684-99.436 66.191-159.801 66.191s-117.116-23.507-159.801-66.191c-42.683-42.684-66.191-99.436-66.191-159.8s23.508-117.117 66.192-159.801c42.684-42.685 99.436-66.192 159.8-66.192s117.116 23.507 159.801 66.192c42.684 42.684 66.191 99.436 66.191 159.801s-23.507 117.116-66.191 159.8z"/><path d="m165.032 252.341c28.474 0 51.64-23.166 51.64-51.64s-23.166-51.64-51.64-51.64-51.64 23.166-51.64 51.64 23.166 51.64 51.64 51.64zm0-73.279c11.932 0 21.64 9.708 21.64 21.64s-9.708 21.64-21.64 21.64-21.64-9.708-21.64-21.64 9.708-21.64 21.64-21.64z"/><path d="m393.454 295.765c-7.671-3.124-16.425.564-19.549 8.237-20.103 49.382-66.309 81.29-117.715 81.29s-97.612-31.908-117.715-81.29c-3.124-7.673-11.877-11.359-19.549-8.237-7.673 3.124-11.361 11.876-8.237 19.549 24.725 60.735 81.838 99.979 145.501 99.979s120.776-39.244 145.501-99.979c3.124-7.673-.564-16.425-8.237-19.549z"/><path d="m292.537 214.416 65.643 37.899c2.362 1.364 4.941 2.012 7.486 2.012 5.184 0 10.226-2.69 13.004-7.502 4.142-7.174 1.684-16.348-5.49-20.49l-43.143-24.909 43.143-24.909c7.174-4.142 9.632-13.316 5.49-20.49s-13.316-9.633-20.49-5.49l-65.643 37.899c-4.641 2.679-7.5 7.631-7.5 12.99s2.859 10.311 7.5 12.99z"/></g></svg>