<svg width="512" height="512" xmlns="http://www.w3.org/2000/svg">

 <g>
  <title>background</title>
  <rect fill="none" id="canvas_background" height="602" width="802" y="-1" x="-1"/>
 </g>
 <g>
  <title>Layer 1</title>
  <g stroke="null" id="svg_1">
   <g stroke="null" id="svg_2">
    <path stroke="null" id="svg_3" d="m336.28572,400.00001l-84.57309,0l112.58847,-191.06577c11.57818,-19.64218 17.69891,-42.09704 17.69891,-64.93424c0,-70.57953 -57.42047,-128 -128,-128s-128,57.42047 -128,128c0,25.20769 20.5066,45.71429 45.71429,45.71429s45.71429,-20.5066 45.71429,-45.71429c0,-20.16582 16.40561,-36.57143 36.57143,-36.57143s36.57143,16.40561 36.57143,36.57143c0,6.51969 -1.74213,12.91969 -5.03688,18.51179l-153.20437,259.9946c-8.30836,14.09829 -8.42473,31.68249 -0.30587,45.88883c8.1172,14.208 23.32592,23.03335 39.68997,23.03335l164.57143,0c25.20769,0 45.71429,-20.5066 45.71429,-45.71429s-20.5066,-45.71429 -45.71429,-45.71429zm0,66.49517l-164.57143,0c-7.4373,0 -14.35096,-4.01288 -18.04135,-10.4694c-3.69039,-6.45818 -3.63719,-14.44904 0.13797,-20.85735l153.20437,-259.99294c5.55553,-9.42712 8.49122,-20.20571 8.49122,-31.17548c0,-33.91501 -27.59148,-61.50649 -61.50649,-61.50649c-33.91501,0 -61.50649,27.59148 -61.50649,61.50649c0,11.45849 -9.32073,20.77922 -20.77922,20.77922s-20.77922,-9.32073 -20.77922,-20.77922c0,-56.83034 46.2346,-103.06494 103.06494,-103.06494s103.06494,46.2346 103.06494,103.06494c0,18.38712 -4.92551,36.46338 -14.24623,52.27387l-123.66463,209.86515c-2.27242,3.85496 -2.304,8.63086 -0.08312,12.51574c2.22088,3.88488 6.35013,6.28197 10.82514,6.28197l106.38961,0c11.45849,0 20.77922,9.32073 20.77922,20.77922s-9.32073,20.77922 -20.77922,20.77922z"/>
   </g>
  </g>
  <g id="svg_4"/>
  <g id="svg_5"/>
  <g id="svg_6"/>
  <g id="svg_7"/>
  <g id="svg_8"/>
  <g id="svg_9"/>
  <g id="svg_10"/>
  <g id="svg_11"/>
  <g id="svg_12"/>
  <g id="svg_13"/>
  <g id="svg_14"/>
  <g id="svg_15"/>
  <g id="svg_16"/>
  <g id="svg_17"/>
  <g id="svg_18"/>
 </g>
</svg>