<svg id="Layer_1" enable-background="new 0 0 511.985 511.985" height="512" viewBox="0 0 511.985 511.985" width="512" xmlns="http://www.w3.org/2000/svg"><g><path d="m437.006 74.979c-48.35-48.351-112.636-74.979-181.014-74.979s-132.663 26.628-181.013 74.979-74.979 112.635-74.979 181.014c0 68.378 26.628 132.663 74.979 181.014s112.636 74.979 181.014 74.979 132.663-26.628 181.014-74.979 74.979-112.636 74.979-181.014-26.629-132.664-74.98-181.014zm-211.433 333.577c.108-1.029.103-2.053 0-3.059v-27.375h60.855v73.405c0 16.778-13.649 30.428-30.428 30.428s-30.428-13.65-30.428-30.428v-42.971zm67.843-60.434h-74.832c-12.688 0-23.012 10.323-23.012 23.012v13.317c-14.137-7.367-26.643-17.203-36.296-28.714-10.594-12.631-17.453-26.717-20.24-41.374h233.887c-2.829 14.485-9.733 28.498-20.375 41.167-9.671 11.513-22.111 21.391-36.12 28.835v-13.231c0-12.689-10.323-23.012-23.012-23.012zm122.377 67.671c-29.24 29.24-65.082 49.476-104.164 59.326 3.087-7.252 4.799-15.226 4.799-23.593v-34.044c23.09-9.552 43.793-24.444 59.092-42.657 18.881-22.478 28.861-48.573 28.861-75.462 0-8.284-6.716-15-15-15h-266.762c-8.284 0-15 6.716-15 15 0 27.126 9.914 53.287 28.671 75.651 15.26 18.196 36.028 33.008 59.282 42.44v34.073c0 8.368 1.712 16.344 4.801 23.597-39.089-9.848-74.937-30.086-104.182-59.33-42.684-42.685-66.191-99.437-66.191-159.801s23.507-117.117 66.192-159.801c42.684-42.685 99.435-66.192 159.8-66.192 60.364 0 117.116 23.507 159.801 66.192 42.684 42.684 66.191 99.436 66.191 159.801s-23.507 117.116-66.191 159.8z"/><path d="m170.656 144.834c-33.136 0-60.094 26.958-60.094 60.094 0 8.284 6.716 15 15 15s15-6.716 15-15c0-16.594 13.5-30.094 30.094-30.094 16.595 0 30.095 13.5 30.095 30.094 0 8.284 6.716 15 15 15s15-6.716 15-15c-.001-33.136-26.959-60.094-60.095-60.094z"/><path d="m345.048 116.739c-36.195 0-65.643 29.447-65.643 65.643s29.447 65.642 65.643 65.642 65.643-29.447 65.643-65.642-29.448-65.643-65.643-65.643zm0 101.284c-19.653 0-35.643-15.989-35.643-35.642s15.989-35.643 35.643-35.643 35.643 15.989 35.643 35.643-15.99 35.642-35.643 35.642z"/><circle cx="345.048" cy="182.381" r="15"/></g></svg>